<?xml version="1.0" encoding="UTF-8" standalone="no"?>
<!DOCTYPE svg PUBLIC "-//W3C//DTD SVG 1.1//EN" "http://www.w3.org/Graphics/SVG/1.1/DTD/svg11.dtd">
<svg
  width="100%"
  height="100%"
  viewBox="0 0 9668 1267"
  version="1.1"
  xmlns="http://www.w3.org/2000/svg"
  xmlns:xlink="http://www.w3.org/1999/xlink"
  xml:space="preserve"
  xmlns:serif="http://www.serif.com/"
  style="
    fill-rule: evenodd;
    clip-rule: evenodd;
    stroke-linejoin: round;
    stroke-miterlimit: 2;
  "
>
  <g transform="matrix(8.333333,0,0,8.333333,0,0)">
    <g>
      <path
        d="M83.95,150L5.27,150L5.27,132.28L26.33,124.04L26.33,28.84L5.27,20.6L5.27,2.88L83.95,2.88L83.95,20.6L62.89,28.84L62.89,124.04L83.95,132.28L83.95,150Z"
        style="
          fill: currentColor;
          fill-rule: nonzero;
          stroke: currentColor;
          stroke-width: 0.12px;
        "
      />
      <path
        d="M186.83,26.78C172.79,26.78 162.05,31.24 154.63,40.17C147.21,49.1 143.49,61.33 143.49,76.85C143.49,92.37 146.92,104.64 153.78,113.22C160.64,121.81 171.65,126.1 186.82,126.1C193.76,126.1 200.78,125.41 207.88,124.04C214.98,122.67 222.65,120.74 230.88,118.27L230.88,144.44C223.29,147.05 215.79,148.97 208.37,150.21C200.94,151.45 192.63,152.06 183.44,152.06C165.53,152.06 150.84,148.94 139.38,142.68C127.92,136.43 119.45,127.64 113.96,116.3C108.47,104.97 105.73,91.75 105.73,76.63C105.73,61.51 108.88,48.68 115.17,37.27C121.46,25.87 130.62,16.94 142.65,10.48C154.67,4.02 169.4,0.8 186.83,0.8C195.38,0.8 203.98,1.73 212.61,3.58C221.24,5.43 229.51,7.94 237.42,11.1L225.56,36.44C219.1,33.83 212.61,31.57 206.07,29.64C199.53,27.72 193.12,26.76 186.82,26.76L186.82,26.78L186.83,26.78Z"
        style="
          fill: currentColor;
          fill-rule: nonzero;
          stroke: currentColor;
          stroke-width: 0.12px;
        "
      />
      <path
        d="M336.2,26.78C322.16,26.78 311.42,31.24 304,40.17C296.58,49.1 292.86,61.33 292.86,76.85C292.86,92.37 296.29,104.64 303.15,113.22C310.01,121.81 321.02,126.1 336.19,126.1C343.13,126.1 350.15,125.41 357.25,124.04C364.35,122.67 372.02,120.74 380.25,118.27L380.25,144.44C372.66,147.05 365.16,148.97 357.74,150.21C350.31,151.45 342,152.06 332.81,152.06C314.9,152.06 300.21,148.94 288.75,142.68C277.29,136.43 268.82,127.64 263.33,116.3C257.84,104.97 255.1,91.75 255.1,76.63C255.1,61.51 258.25,48.68 264.54,37.27C270.83,25.87 279.99,16.94 292.02,10.48C304.04,4.02 318.77,0.8 336.2,0.8C344.75,0.8 353.35,1.73 361.98,3.58C370.61,5.43 378.88,7.94 386.79,11.1L374.93,36.44C368.47,33.83 361.98,31.57 355.44,29.64C348.9,27.72 342.49,26.76 336.19,26.76L336.19,26.78L336.2,26.78Z"
        style="
          fill: currentColor;
          fill-rule: nonzero;
          stroke: currentColor;
          stroke-width: 0.12px;
        "
      />
      <path
        d="M740.71,150L619.91,150L619.91,128.36L663.24,91.07C671.95,83.38 678.98,76.95 684.3,71.8C689.63,66.65 693.5,61.98 695.92,57.79C698.34,53.6 699.55,49.1 699.55,44.29C699.55,38.39 697.65,33.99 693.86,31.1C690.07,28.22 684.94,26.77 678.49,26.77C672.04,26.77 665.42,28.08 659.12,30.69C652.83,33.3 646.21,37.01 639.27,41.82L619.42,21.83C624.26,18.26 629.5,14.86 635.16,11.63C640.81,8.4 647.3,5.79 654.65,3.8C661.99,1.81 670.83,0.81 681.16,0.81C692.45,0.81 702.18,2.56 710.33,6.06C718.48,9.56 724.77,14.3 729.21,20.28C733.65,26.26 735.87,33.02 735.87,40.58C735.87,48.69 733.97,56.11 730.18,62.83C726.39,69.56 720.9,76.22 713.72,82.82C706.54,89.41 697.86,96.7 687.7,104.66L665.43,122.38L665.43,123.82L740.72,123.82L740.72,149.99L740.71,150Z"
        style="
          fill: currentColor;
          fill-rule: nonzero;
          stroke: currentColor;
          stroke-width: 0.12px;
        "
      />
      <path
        d="M878.21,76.44C878.21,92.24 876.23,105.77 872.28,117.03C868.32,128.3 861.91,136.95 853.03,142.99C844.15,149.04 832.37,152.06 817.69,152.06C796.87,152.06 781.62,145.4 771.94,132.07C762.26,118.75 757.42,100.2 757.42,76.44C757.42,60.65 759.36,47.08 763.23,35.74C767.1,24.41 773.48,15.72 782.35,9.67C791.22,3.63 803.01,0.6 817.69,0.6C838.35,0.6 853.6,7.26 863.44,20.59C873.28,33.92 878.21,52.53 878.21,76.43L878.21,76.44ZM793.72,76.44C793.72,93.2 795.41,105.8 798.8,114.25C802.19,122.7 808.48,126.92 817.68,126.92C826.88,126.92 833.01,122.73 836.56,114.35C840.11,105.97 841.89,93.33 841.89,76.44C841.89,59.55 840.11,47.05 836.56,38.53C833.01,30.01 826.71,25.76 817.68,25.76C808.65,25.76 802.19,30.02 798.8,38.53C795.41,47.05 793.72,59.69 793.72,76.44Z"
        style="
          fill: currentColor;
          fill-rule: nonzero;
          stroke: currentColor;
          stroke-width: 0.12px;
        "
      />
      <path
        d="M1017.65,150L896.85,150L896.85,128.36L940.18,91.07C948.89,83.38 955.92,76.95 961.24,71.8C966.57,66.65 970.44,61.98 972.86,57.79C975.28,53.6 976.49,49.1 976.49,44.29C976.49,38.39 974.59,33.99 970.8,31.1C967.01,28.22 961.88,26.77 955.43,26.77C948.98,26.77 942.36,28.08 936.06,30.69C929.77,33.3 923.15,37.01 916.21,41.82L896.36,21.83C901.2,18.26 906.44,14.86 912.1,11.63C917.75,8.4 924.24,5.79 931.59,3.8C938.93,1.81 947.77,0.81 958.1,0.81C969.39,0.81 979.12,2.56 987.27,6.06C995.42,9.56 1001.71,14.3 1006.15,20.28C1010.59,26.26 1012.81,33.02 1012.81,40.58C1012.81,48.69 1010.91,56.11 1007.12,62.83C1003.33,69.56 997.84,76.22 990.66,82.82C983.48,89.41 974.8,96.7 964.64,104.66L942.37,122.38L942.37,123.82L1017.66,123.82L1017.66,149.99L1017.65,150Z"
        style="
          fill: currentColor;
          fill-rule: nonzero;
          stroke: currentColor;
          stroke-width: 0.12px;
        "
      />
      <path
        d="M1034.11,87.57C1034.11,79.19 1034.84,70.85 1036.29,62.53C1037.74,54.22 1040.28,46.39 1043.92,39.04C1047.55,31.69 1052.63,25.17 1059.17,19.46C1065.71,13.76 1074.02,9.3 1084.1,6.07C1094.18,2.84 1106.41,1.23 1120.77,1.23C1124.16,1.23 1128.11,1.33 1132.63,1.54C1137.15,1.75 1140.94,2.13 1144.01,2.67L1144.01,27.6C1140.94,27.05 1137.59,26.57 1133.96,26.16C1130.33,25.75 1126.74,25.54 1123.19,25.54C1108.82,25.54 1097.73,27.46 1089.9,31.31C1082.07,35.16 1076.54,40.55 1073.32,47.48C1070.09,54.42 1068.24,62.42 1067.75,71.48L1069.2,71.48C1072.43,66.67 1077.07,62.62 1083.12,59.32C1089.17,56.02 1097.04,54.37 1106.72,54.37C1121.89,54.37 1133.91,58.42 1142.79,66.53C1151.66,74.64 1156.1,86.11 1156.1,100.94C1156.1,116.88 1150.81,129.37 1140.24,138.44C1129.67,147.51 1115.34,152.04 1097.27,152.04C1085.49,152.04 1074.84,149.74 1065.31,145.14C1055.79,140.54 1048.2,133.47 1042.55,123.92C1036.9,114.37 1034.08,102.25 1034.08,87.55L1034.11,87.57ZM1096.56,127.13C1103.66,127.13 1109.47,125.04 1113.99,120.85C1118.51,116.66 1120.77,110.17 1120.77,101.38C1120.77,94.24 1118.83,88.6 1114.96,84.48C1111.09,80.36 1105.19,78.3 1097.29,78.3C1091.8,78.3 1087.08,79.33 1083.13,81.39C1079.17,83.45 1076.07,86.03 1073.81,89.12C1071.55,92.21 1070.42,95.41 1070.42,98.7C1070.42,103.23 1071.39,107.7 1073.32,112.09C1075.26,116.49 1078.2,120.09 1082.16,122.91C1086.11,125.73 1090.91,127.13 1096.56,127.13Z"
        style="
          fill: currentColor;
          fill-rule: nonzero;
          stroke: currentColor;
          stroke-width: 0.12px;
        "
      />
    </g>
  </g>
  <g transform="matrix(2.673429,0,0,2.773421,-9295.266929,-2890.443592)">
    <path
      d="M4772.553,1052.899C4772.553,1052.354 4772.778,1051.831 4773.179,1051.447C4773.579,1051.062 4774.121,1050.846 4774.687,1050.848C4796.793,1050.903 4983.29,1051.368 4983.836,1051.37L4983.842,1051.37C5102.27,1051.372 5144.548,1126.88 5144.548,1202.849C5144.548,1256.302 5097.843,1355.148 4983.837,1355.148L4890.839,1355.148C4890.275,1355.148 4889.734,1355.364 4889.335,1355.749C4888.936,1356.133 4888.712,1356.655 4888.712,1357.199L4888.712,1490.905C4888.712,1492.038 4887.759,1492.956 4886.584,1492.956L4774.681,1492.956C4774.117,1492.956 4773.576,1492.74 4773.177,1492.355C4772.778,1491.971 4772.553,1491.449 4772.553,1490.905L4772.553,1052.899ZM4890.731,1142.712C4890.162,1142.704 4889.612,1142.916 4889.206,1143.301C4888.8,1143.687 4888.571,1144.213 4888.571,1144.763L4888.571,1260.088C4888.571,1260.632 4888.795,1261.153 4889.194,1261.538C4889.593,1261.923 4890.134,1262.139 4890.699,1262.139L4958.55,1262.139C5013.718,1262.139 5026.836,1224.569 5026.925,1201.999C5027.011,1180.051 5013.315,1143.725 4958.569,1143.717L4958.536,1143.717C4957.518,1143.702 4902.411,1142.885 4890.731,1142.712Z"
      style="fill: rgb(251, 118, 52)"
    />
    <g>
      <clipPath id="_clip1">
        <path
          d="M4772.553,1052.899C4772.553,1052.354 4772.778,1051.831 4773.179,1051.447C4773.579,1051.062 4774.121,1050.846 4774.687,1050.848C4796.793,1050.903 4983.29,1051.368 4983.836,1051.37L4983.842,1051.37C5102.27,1051.372 5144.548,1126.88 5144.548,1202.849C5144.548,1256.302 5097.843,1355.148 4983.837,1355.148L4890.839,1355.148C4890.275,1355.148 4889.734,1355.364 4889.335,1355.749C4888.936,1356.133 4888.712,1356.655 4888.712,1357.199L4888.712,1490.905C4888.712,1492.038 4887.759,1492.956 4886.584,1492.956L4774.681,1492.956C4774.117,1492.956 4773.576,1492.74 4773.177,1492.355C4772.778,1491.971 4772.553,1491.449 4772.553,1490.905L4772.553,1052.899ZM4890.731,1142.712C4890.162,1142.704 4889.612,1142.916 4889.206,1143.301C4888.8,1143.687 4888.571,1144.213 4888.571,1144.763L4888.571,1260.088C4888.571,1260.632 4888.795,1261.153 4889.194,1261.538C4889.593,1261.923 4890.134,1262.139 4890.699,1262.139L4958.55,1262.139C5013.718,1262.139 5026.836,1224.569 5026.925,1201.999C5027.011,1180.051 5013.315,1143.725 4958.569,1143.717L4958.536,1143.717C4957.518,1143.702 4902.411,1142.885 4890.731,1142.712Z"
        />
      </clipPath>
      <g clip-path="url(#_clip1)">
        <g transform="matrix(0.606919,0,0,0.576861,3631.809989,618.86507)">
          <g transform="matrix(4.166667,0,0,4.166667,1062.570122,598.343582)">
            <path
              d="M319.9,111.96C309.82,110.88 298.54,105.24 291.38,98.15C290.08,96.86 285.1,90.97 284.65,89.55C284.49,89.04 284.36,88.64 284.7,88.15L296.68,67.61L322.77,111.96C321.83,111.89 320.83,112.06 319.9,111.96Z"
              style="fill-rule: nonzero"
            />
          </g>
          <g transform="matrix(4.166667,0,0,4.166667,1062.570122,598.343582)">
            <path
              d="M326.12,111.96L314.15,90.5L365.39,90.5C359.49,99.28 350.81,106.07 340.74,109.59L330.43,111.96L326.12,111.96Z"
              style="fill-rule: nonzero"
            />
          </g>
          <g transform="matrix(4.166667,0,0,4.166667,1062.570122,598.343582)">
            <path
              d="M354.37,60.93L328.04,16.59C341.31,17.2 353.74,23.78 362.29,33.75C363.06,34.65 365.83,38.19 366.13,39.03C366.75,40.78 355.09,57.65 354.38,60.94L354.37,60.93Z"
              style="fill-rule: nonzero"
            />
          </g>
          <g transform="matrix(4.166667,0,0,4.166667,1062.570122,598.343582)">
            <path
              d="M308.4,41.38L282.31,85.26C275.21,71.35 276.01,55.16 283.02,41.38L308.4,41.38Z"
              style="fill-rule: nonzero"
            />
          </g>
          <g transform="matrix(4.166667,0,0,4.166667,1062.570122,598.343582)">
            <path
              d="M285.42,38.05C293.59,25.13 308.62,16.92 323.99,16.56L336.66,38.05L285.42,38.05Z"
              style="fill-rule: nonzero"
            />
          </g>
        </g>
        <g transform="matrix(3.318287,0,0,3.153946,3366.689842,955.410873)">
          <path
            d="M485.59,23.26C485.55,23.89 485.66,24.55 485.59,25.17C483.91,41.02 475.72,68.51 465.95,81.19C450.43,101.33 419.48,105.59 395.35,106.73C394.38,106.78 392.86,106.85 391.96,106.71C391.2,106.6 391.24,107 391.24,105.99C391.24,103.61 394.64,94.57 395.69,91.81C410.91,51.6 443.52,29.62 485.6,23.26L485.59,23.26ZM483.67,26.13L470.08,33.24L469.78,34.23C472.78,34.66 474.21,37.42 476.48,39L483.67,26.13ZM429.8,55.21L438.66,55.21L431.01,68.8L432.68,69.97L435.55,65.7L445.61,81.89C448.19,80.27 443.65,77.05 443.45,74.75L452.79,74.75C457.61,69.86 459.92,62.58 463.82,57.13C464.76,55.82 464.45,57.92 465.47,58.06C466,54.67 474.87,43.32 474.87,41.13C474.87,38.94 469.47,34.58 467.34,34.94L450.15,45.43C453.88,45.73 461.64,50.32 462.85,53.8C463.31,55.12 458.94,61.25 458.05,62.83L447.29,44.46C446.86,43.83 445.87,44.69 445.86,44.94C445.82,45.93 450.76,51.83 450.64,53.77L431.96,53.77C431.66,52.64 432.26,52.96 432.57,52.68C442.31,44.02 455.23,37.89 466.74,31.9L478.88,26.59C441.21,32.47 406.93,58.42 396.52,95.73L408.25,79.04C407.98,82.85 406.94,86.63 407.74,90.51C408.14,92.43 411.84,98.04 413.62,98.52C415.25,98.96 426.02,93.84 428.22,92.73C432.49,90.58 436.58,88.1 440.56,85.47C441.72,84.1 440.34,81.18 439.69,79.67C436.34,71.81 425.69,66.5 417.58,70.22C416.21,70.85 415.22,72.12 413.75,72.36L429.79,55.2L429.8,55.21ZM401.79,104.8C421.43,101 442.92,99.55 458.3,85.5C473.68,71.45 477.57,51.4 482.71,31.85C474.95,43.02 469.49,55.75 461.56,66.81C449.93,83.01 435.69,92.25 417.23,99.44L401.79,104.8ZM428.12,68.09L427.41,63.32L424.3,67.13L428.13,68.09L428.12,68.09ZM393.17,105.28L411.83,99.32C408.62,96.25 405.49,92.33 405.61,87.64C403.15,90.5 400.7,93.46 398.52,96.55C397.89,97.45 392.79,104.89 393.17,105.28Z"
            style="fill-rule: nonzero"
          />
        </g>
        <g transform="matrix(0.721997,0,0,0.686239,3409.591983,697.355646)">
          <g transform="matrix(4.166667,0,0,4.166667,1062.570122,590.451585)">
            <ellipse cx="187.4" cy="99.98" rx="2.84" ry="2.83" />
          </g>
          <g transform="matrix(4.166667,0,0,4.166667,1156.457916,746.452054)">
            <path
              d="M238.01,78.58C238.45,82.65 234.23,84.84 231.28,82.18C230.68,81.64 230.28,80.49 229.86,80.23C228.66,79.47 222.41,83.36 221.09,84.39C218.69,86.25 216.26,88.92 215.5,91.94C217.68,91.13 219.32,89.52 221.59,88.71C234.64,84.04 235.73,97.54 225.4,102.52C212.89,108.54 202.89,101.3 191.67,96.83C184.04,93.79 175.98,89.84 167.58,92.16C166.16,91.63 161.88,83.25 161.15,81.44C156.6,70.24 156.58,57.85 161.15,46.65C161.83,44.98 164.7,39.22 165.83,38.2C167.02,37.13 170.69,35.98 172.34,35.63C170.37,25.56 184.56,24.45 183.4,34.72C179.69,33.98 176.51,34.41 172.87,35.2C173.71,38.28 177.21,39.21 180.08,38.32C182.18,37.67 182.71,34.66 184.47,34.8C188.47,35.12 198.61,40.7 201.61,43.54C204.33,46.12 206,50.07 207.83,53.32C205.19,52.58 203.23,50.86 200.35,50.52C198.48,50.3 193.18,50.19 191.52,50.68C185.04,52.59 182.49,67.81 187.23,72.4C187.06,71.56 189.3,67.73 190.11,68.59C189.65,72.58 186.06,72.48 189.17,76.44C191.4,79.29 197.23,82.76 200.9,82.89C201.56,82.91 202.35,83.2 202.07,82.2C201.76,81.07 196.34,73.33 196.82,72.89C201.25,73.94 205.73,74.5 210.23,73.61L220.29,56.2C223.43,59.4 222.66,64.51 222.44,68.59C227.45,65.05 231.97,60.88 236.9,57.24C238.9,55.76 244.31,51.49 246.17,50.73C246.65,50.53 247.06,50.38 247.59,50.48C250.52,60.31 250.3,70.92 246.62,80.51C243.68,79.72 241.14,78.78 238.02,78.62C237.48,73.58 229.99,74.4 229.88,79.57C232.63,78.68 235.12,78.47 238.02,78.62L238.01,78.58ZM212.63,73.33L220.05,73.33C220.8,72.85 222.08,69.5 221.72,69.04L212.63,73.33ZM219.33,74.76L199.22,74.76C200.73,76.36 202.32,81.19 203.77,82.38C206.93,84.98 217.94,78.44 219.33,74.76ZM175.91,81.74C175.91,79.51 174.1,77.71 171.86,77.71C169.62,77.71 167.81,79.51 167.81,81.74C167.81,83.97 169.62,85.77 171.86,85.77C174.1,85.77 175.91,83.97 175.91,81.74ZM200.05,96.45C200.05,95.51 199.28,94.74 198.33,94.74C197.38,94.74 196.61,95.5 196.61,96.45C196.61,97.4 197.38,98.16 198.33,98.16C199.28,98.16 200.05,97.4 200.05,96.45Z"
              style="fill-rule: nonzero"
            />
          </g>
          <g transform="matrix(4.166667,0,0,4.166667,1062.570122,590.451585)">
            <path
              d="M214.55,62.36L205.45,45.19C209.45,46.11 213.07,47.23 216.23,49.95C217.23,50.81 220.05,53.61 219.74,54.85C219.65,55.23 216.32,61.02 215.9,61.57C215.48,62.12 215.39,62.54 214.54,62.36L214.55,62.36Z"
              style="fill-rule: nonzero"
            />
          </g>
          <g transform="matrix(4.166667,0,0,4.166667,1062.570122,590.451585)">
            <ellipse cx="226.2" cy="54.79" rx="4.17" ry="4.16" />
          </g>
        </g>
        <g transform="matrix(0.796389,0,0,0.756947,3877.55856,640.842804)">
          <g transform="matrix(4.166667,0,0,4.166667,1062.570122,607.727662)">
            <path
              d="M25.87,63.81C26.29,63.77 26.75,63.63 27.05,63.34C38.23,52.7 57.05,36.25 71.84,32.09C99.79,24.24 119.79,47.53 137.92,64.52C128.84,74.27 118.11,82.8 105.48,87.53C95.7,91.19 84.59,95.37 74.23,92.66C59.95,88.92 45.58,82.36 34.26,72.85C33.16,71.93 25.08,64.88 25.87,63.81ZM133.61,62.84C117.03,46.79 96.22,26.76 70.9,34.97C61.55,38 52.97,43.56 45.27,49.51C40.08,53.52 35,58.01 30.17,62.37C50.53,53.53 72.19,48.55 94.51,51.48C108,53.25 121.06,57.86 133.61,62.85L133.61,62.84ZM93.86,62.84C93.18,62.99 93.08,62.78 92.69,62.35C91.45,61.01 88.53,53.8 87.37,53.34C87.06,53.22 86.58,53.34 86.2,53.31L86.69,54.26C76.25,54.72 65.43,52.93 55.32,56.17C48.69,78.64 70.94,98.72 92.9,89.78C105.63,84.6 113.47,69.54 108.72,56.4L98.5,54.8L93.86,62.84ZM52.69,59.03C51.95,58.3 34.49,62.19 32.36,62.87C31.45,63.16 28.56,64.19 28.78,65.4C38.21,75.24 50.02,83.29 63.22,87.16C55.24,79.86 51,69.89 52.69,59.03ZM111.59,59.5L111.59,69.28C111.59,69.49 110.57,72.7 110.37,73.31C108.62,78.67 105.19,83.19 101.05,86.92C103.27,87.07 106.22,85.66 108.4,84.7C112.2,83.03 116.62,80.52 120.07,78.2C122.26,76.73 134.86,67.01 134.52,65.04C134.03,64.13 133.21,63.75 132.28,63.44C126.31,61.41 117.84,61.18 111.58,59.5L111.59,59.5Z"
              style="fill-rule: nonzero"
            />
          </g>
          <g transform="matrix(4.166667,0,0,4.166667,1062.570122,607.727662)">
            <path
              d="M89.08,73.81L98.9,56.18C102.16,61.11 101.88,68.99 98.42,73.81L89.08,73.81Z"
              style="fill-rule: nonzero"
            />
          </g>
          <g transform="matrix(4.166667,0,0,4.166667,1062.570122,607.727662)">
            <path
              d="M75.19,55.21L64.66,72.85C62.2,66.78 62.25,61.11 65.13,55.21L75.19,55.21Z"
              style="fill-rule: nonzero"
            />
          </g>
          <g transform="matrix(4.166667,0,0,4.166667,1062.570122,607.727662)">
            <path
              d="M97.7,74.76C98.46,75.4 93.3,79.95 92.59,80.4C90.51,81.74 83.84,84.67 81.87,82.65L77.59,74.76L97.7,74.76Z"
              style="fill-rule: nonzero"
            />
          </g>
          <g transform="matrix(4.166667,0,0,4.166667,1062.570122,607.727662)">
            <path
              d="M80.94,83.34C74.79,83.46 69.24,79.59 65.83,74.73L70.41,65.7L80.94,83.34Z"
              style="fill-rule: nonzero"
            />
          </g>
        </g>
      </g>
    </g>
    <path
      d="M4772.553,1052.899C4772.553,1052.354 4772.778,1051.831 4773.179,1051.447C4773.579,1051.062 4774.121,1050.846 4774.687,1050.848L4983.836,1051.37L4983.842,1051.37C5102.27,1051.372 5144.548,1126.88 5144.548,1202.849C5144.548,1256.302 5097.843,1355.148 4983.837,1355.148L4890.839,1355.148C4890.275,1355.148 4889.734,1355.364 4889.335,1355.749C4888.936,1356.133 4888.712,1356.655 4888.712,1357.199L4888.712,1490.905C4888.712,1492.038 4887.759,1492.956 4886.584,1492.956L4774.681,1492.956C4774.117,1492.956 4773.576,1492.74 4773.177,1492.355C4772.778,1491.971 4772.553,1491.449 4772.553,1490.905L4772.553,1052.899ZM4777.229,1055.361L4777.229,1488.449L4884.036,1488.449L4884.036,1357.199C4884.036,1355.459 4884.753,1353.791 4886.029,1352.562C4887.305,1351.332 4889.035,1350.641 4890.839,1350.641L4983.837,1350.641C5094.498,1350.641 5139.872,1254.734 5139.872,1202.849C5139.872,1158.632 5125.281,1114.506 5088.655,1086.335C5064.174,1067.506 5029.914,1055.877 4983.842,1055.877L4983.824,1055.877L4777.229,1055.361ZM4958.569,1139.21L4958.608,1139.21C4981.873,1139.221 4998.119,1145.536 5009.286,1154.442C5026.303,1168.015 5031.656,1187.798 5031.6,1202.016C5031.543,1216.582 5026.359,1236.922 5009.47,1250.89C4998.325,1260.107 4982.042,1266.646 4958.55,1266.646L4890.699,1266.646C4888.894,1266.646 4887.164,1265.955 4885.888,1264.725C4884.612,1263.495 4883.895,1261.827 4883.895,1260.088L4883.895,1144.763C4883.895,1143.006 4884.627,1141.323 4885.925,1140.09C4887.224,1138.857 4888.981,1138.178 4890.803,1138.205L4958.569,1139.21ZM4890.731,1142.712C4890.162,1142.704 4889.612,1142.916 4889.206,1143.301C4888.8,1143.687 4888.571,1144.213 4888.571,1144.763L4888.571,1260.088C4888.571,1260.632 4888.795,1261.153 4889.194,1261.538C4889.593,1261.923 4890.134,1262.139 4890.699,1262.139L4958.55,1262.139C5013.718,1262.139 5026.836,1224.569 5026.925,1201.999C5027.011,1180.051 5013.315,1143.725 4958.569,1143.717L4958.536,1143.717L4890.731,1142.712Z"
      style="fill: currentColor; stroke: currentColor; stroke-width: 0.37px"
    />
  </g>
</svg>
